PathFileType	3	(X/Y/Z)	D:\Jess\PFP\Labelled\PA09\20250730\SRRun01.trc
DataRate	CameraRate	NumFrames	NumMarkers	Units	OrigDataRate	OrigDataStartFrame	OrigNumFrames
250.0	250.0	5	37	mm	250.0	35312	2501
Frame#	Time	C7			T10			CLAV			LSHO			RSHO			LASIS			RASIS			LPSIS			RPSIS			LILCR			RILCR			LGTR			LTHI			LLTHI			LLEP			LMEP			LPSH			LLSH			LDSH			LLMAL			LMMAL			LTOE			L5TH			LHEE			RGTR			RTHI			RLTHI			RLEP			RMEP			RPSH			RLSH			RDSH			RLMAL			RMMAL			RTOE			R5TH			RHEE			
		X1	Y1	Z1	X2	Y2	Z2	X3	Y3	Z3	X4	Y4	Z4	X5	Y5	Z5	X6	Y6	Z6	X7	Y7	Z7	X8	Y8	Z8	X9	Y9	Z9	X10	Y10	Z10	X11	Y11	Z11	X12	Y12	Z12	X13	Y13	Z13	X14	Y14	Z14	X15	Y15	Z15	X16	Y16	Z16	X17	Y17	Z17	X18	Y18	Z18	X19	Y19	Z19	X20	Y20	Z20	X21	Y21	Z21	X22	Y22	Z22	X23	Y23	Z23	X24	Y24	Z24	X25	Y25	Z25	X26	Y26	Z26	X27	Y27	Z27	X28	Y28	Z28	X29	Y29	Z29	X30	Y30	Z30	X31	Y31	Z31	X32	Y32	Z32	X33	Y33	Z33	X34	Y34	Z34	X35	Y35	Z35	X36	Y36	Z36	X37	Y37	Z37	

313	141.244	1151.545153656148	1420.534792899491	-319.0360459340183	1049.226326334478	1188.988477701497	-337.1634952430389	1268.631260627533	1309.244888367137	-278.5658164333938	1246.502762104211	1403.675850181352	-455.678062314766	1148.129538138733	1392.330640535163	-156.9660328700083	1171.292541164199	962.1944299770732	-433.8698268068306	1145.759272334061	970.4667777264061	-216.0863780293339	1017.67375887642	1028.336347083964	-347.7201036297112	1011.17151603223	1025.288718794583	-313.8510389388113	1143.809828126932	1033.464273502783	-460.2277885592716	1110.322584728166	1030.558259031364	-188.0557234728531	1110.91210073257	864.9680476474041	-488.5635495408376	1114.800808173492	676.6945896728494	-419.7362248416145	995.5600917938016	633.7981571718361	-467.2889029471069	919.0784282543616	526.2308258272468	-448.7693559152181	nan	nan	nan	882.8198380982877	420.1787605066598	-405.2563072476011	761.0613120179959	428.5435008786688	-458.6422964860004	711.7336114518587	323.9082967583854	-406.7389744306827	596.9290248384149	304.2155715860555	-437.7372980448445	nan	nan	nan	620.2439715906908	154.0803684342273	-412.5213302290961	587.5314273109369	160.3018969377378	-452.4803515762001	537.9891452149606	362.3409553548824	-398.2319120516997	1093.745947991568	863.7111935730985	-163.7454104080202	1234.006465481636	725.1639340003599	-231.051025831159	1184.904278378814	635.3346919384225	-175.5061312897127	1224.147746169506	512.1607149275593	-210.3489668754446	nan	nan	nan	1294.139395851628	446.9009311700992	-264.6483555755434	1242.664674055583	317.9567926613836	-216.325892711612	1317.833159942488	249.0458737932121	-272.0520043319503	1298.45167721371	112.8954953197334	-257.2382571140408	nan	nan	nan	1449.154437958846	145.0589119572754	-248.0578483018035	1438.508571526083	98.2963199235508	-216.1940981679652	1245.542173889999	66.45397978478985	-311.1837924503134	
314	141.248	1151.530783424028	1418.311556413896	-318.0111793925507	1048.835640454798	1186.807563455516	-336.6585380149207	1268.600532919069	1306.887161352666	-278.1576408136535	1246.164279708944	1401.626365965664	-455.0778959310824	1148.363040716686	1389.819049168026	-156.1551851934626	1171.252486944216	960.5660465011558	-434.08122399673	1145.633773136066	968.5650767780985	-215.9891125958705	1017.407209054337	1025.68285430579	-348.1310209596286	1010.901456155748	1022.573395294527	-314.2906686220568	1143.387735056968	1031.718303833905	-460.5525558352461	1109.610369076003	1028.190516108232	-188.0440572552473	1111.749806831017	863.0205701703626	-488.8018975880959	1116.999492018809	674.4220249473243	-419.6410983426184	998.3446830728922	630.2862672713372	-467.2032472656883	922.9273706859746	522.9596819873834	-448.2907229654997	nan	nan	nan	884.5171157964162	417.7367313149357	-405.562687977094	762.817472409584	429.7237083580139	-458.6975058847491	710.774921297039	326.1672712748783	-407.4709957394406	595.4867448155413	309.6362529930493	-438.6543848493916	nan	nan	nan	615.4203158624714	158.9659379853302	-414.102071557688	582.9867584618795	166.1556957805132	-454.0740839360735	537.9720299379912	369.0041404876512	-398.8845807812728	1093.773472268819	861.3103070107952	-164.0344369493418	1234.294322945287	724.1879248516143	-231.1348693704491	1186.188230217642	633.631321033675	-175.8702238956201	1225.368586703276	510.5963715617165	-210.8846913701586	nan	nan	nan	1295.023282515918	445.1449383814287	-265.2399584198934	1242.712523674179	316.309720367282	-217.2983627761408	1317.432537165045	247.0687413012214	-273.1403021558697	1296.911975788996	111.3534153286519	-258.5577837460522	nan	nan	nan	1447.834013939641	141.7897843730209	-249.3143795088149	1436.466048629879	95.31150590611352	-217.3880768132403	1243.55061779261	66.20423228438572	-312.6980031670478	
315	141.252	1151.508289791234	1415.928158170889	-316.9807056721764	1048.427753122736	1184.469355600537	-336.1580962066048	1268.554056521202	1304.349794632495	-277.7810055775414	1245.813063558807	1399.407260436216	-454.4949209485312	1148.600163689301	1387.112560922661	-155.3341188304104	1171.125373221335	958.7574738899237	-434.3456435762987	1145.524125888561	966.5792678170508	-215.9007770350885	1017.105342841797	1022.849682913792	-348.5421769220766	1010.618803487529	1019.695720394359	-314.7358305584873	1142.899615670699	1029.781051033768	-460.8941486449272	1108.884966599601	1025.718777761163	-188.0166366043497	1112.496743987679	860.8964883420228	-489.0811272631889	1119.229107806703	672.0028544662265	-419.8019748355908	1001.108231073754	626.5648310382561	-467.1445763710065	926.9743269940495	519.4554816573129	-447.8553412113867	nan	nan	nan	886.5356349036414	415.0994218872684	-405.9529108717654	764.958588483991	430.7258508490312	-458.7411004950487	710.2740069405999	328.3012639431965	-408.2337523484766	594.5625528162873	315.0032549850139	-439.5171972711266	nan	nan	nan	611.0962570472852	163.8419228836271	-415.8752689463728	578.943662843868	172.0627677037988	-455.8122360677997	538.5474627666507	375.5382584839093	-399.3355380348319	1093.834298923338	858.845250088864	-164.304111033739	1234.841852809735	723.4235222622314	-231.2608476917228	1187.622481529188	632.0350170223526	-176.4547530136653	1226.593950747075	508.9276120014399	-211.4464491434173	nan	nan	nan	1295.822936677388	443.1401657998213	-265.8558996523978	1242.426549131955	314.5211678274724	-218.3033329735155	1316.494202913582	244.7908547520214	-274.3087945887329	1294.419270354434	109.6896107408421	-259.9085620574357	nan	nan	nan	1445.623847765484	137.8805913908469	-250.5906125633661	1433.357551789942	91.86454127318055	-218.5250423015182	1240.459268098246	66.04552252780054	-314.1969406400228	
316	141.256	1151.475751150347	1413.389413646839	-315.9475897040529	1048.005714217051	1181.979607779771	-335.6630132730915	1268.49308623421	1301.634613200534	-277.4383975034309	1245.445904131832	1397.0223372761	-453.932334877356	1148.843546530244	1384.211520042864	-154.4995424760428	1170.911283711931	956.7664128102293	-434.6661000280703	1145.432966631897	964.5109793373684	-215.8265709852165	1016.76866057998	1019.844187145567	-348.9463715506341	1010.32398300334	1016.662763460211	-315.1783938681285	1142.349127997282	1027.652951528572	-461.250115728567	1108.164341333983	1023.142802818755	-187.9759147246713	1113.147120948725	858.5960132961591	-489.4018818164487	1121.483395270168	669.4491091199623	-420.2176001391134	1003.846966080104	622.650168708653	-467.1189418844666	931.2094716328731	515.7422220270349	-447.4804048609489	nan	nan	nan	888.8743157134478	412.2871166502329	-406.4288347807563	767.4849640290471	431.5477149925521	-458.7808934287681	710.2430470766077	330.3069760324072	-409.0243218435305	594.1728115797343	320.302420232935	-440.3176072607432	nan	nan	nan	607.3114258434388	168.7048821755332	-417.8472692360492	575.4416595289706	178.017979151835	-457.6983266957319	539.7192978226152	381.9092101474697	-399.5701328646204	1093.936309942272	856.316509109164	-164.5590909324315	1235.645255380696	722.8166353557807	-231.4275718659164	1189.177611997319	630.5211805514916	-177.246672723451	1227.8130248163	507.1452051988422	-212.0327779756363	nan	nan	nan	1296.53204391665	440.8921371554284	-266.5055716589743	1241.825216506768	312.6027834718442	-219.3404504864213	1315.037350122799	242.2391951387423	-275.5604994246098	1291.009998487959	107.9408001719913	-261.2886648895983	nan	nan	nan	1442.548310387373	133.4090640762267	-251.8779152683835	1429.225782531036	88.03741733138146	-219.5946180437111	1236.321626335211	65.97731688957907	-315.6715973439683	
317	141.26	1151.431491568376	1410.701797666973	-314.9149031999523	1047.571907397271	1179.345725247071	-335.1734218390669	1268.419116982376	1298.744141679426	-277.1326085471745	1245.058857783783	1394.476356728495	-453.3945846168131	1149.096464613874	1381.117633532128	-153.6474569344493	1170.611176952863	954.5927851508475	-435.0437050605747	1145.361325743181	962.3613429277873	-215.7708527461556	1016.396598041108	1016.675142011866	-349.3353020811069	1010.015740336983	1013.482708638193	-315.6090133963646	1141.738099856278	1025.335677959004	-461.6186375964705	1107.465570695311	1020.462106830155	-187.92430905065	1113.697172330097	856.119878235327	-489.7623330291066	1123.759311691089	666.7744788220949	-420.8791460709867	1006.564045524105	618.5586889168225	-467.1317032426944	935.6250839183972	511.8453017439537	-447.1822798899741	nan	nan	nan	891.532188535274	409.3209952346329	-406.992004469497	770.394771916779	432.188971844498	-458.8241631407388	710.6912675500918	332.1815577951675	-409.8397941141217	594.3300927764836	325.5186222246334	-441.04795871886	nan	nan	nan	604.1028743457738	173.5505348163351	-420.020326701521	572.5174262124619	184.0139898572399	-459.7325444128132	541.4856676417887	388.082537738829	-399.576891158126	1094.086779724069	853.7239847127242	-164.8037920700193	1236.690032446627	722.3054504179315	-231.6367986498685	1190.823565321864	629.0604407987768	-178.2253477786332	1229.019373853337	505.2444662114697	-212.6426867398324	nan	nan	nan	1297.144291057091	438.4133840548605	-267.2008662615623	1240.928887742156	310.5728397835186	-220.4085463528702	1313.082177083219	239.4489815156952	-276.8968546106906	1286.726376865047	106.14960932478	-262.6949591510647	nan	nan	nan	1438.635159568577	128.4702347008652	-253.1670911579636	1424.121549105942	83.92445167221339	-220.5877924878658	1231.199609667796	65.99939225120301	-317.11238745172	
